<svg xmlns="http://www.w3.org/2000/svg" viewBox="483.5 135.5 1010.751 1008.768"><g transform="translate(500.625 153)"><rect width="427.25" height="554" x="4.725" y="4.65" fill="#ffc7fb"/><path fill="#2ac494" stroke="#000" stroke-linecap="round" stroke-linejoin="round" stroke-width=".75" d="m431.97499,255.57986c-13.13859-8.10499-28.61353-12.79265-45.18921-12.79265-16.85494,0-32.56641,4.8545-45.84569,13.21317-15.78851-19.6234-40.00003-32.19603-67.16301-32.19603-47.57507,0-86.14231,38.52967-86.14231,86.05805s38.56724,86.05805,86.14231,86.05805c16.85494,0,32.56641-4.8545,45.84569-13.21366,15.78857,19.62388,40.00009,32.19652,67.16301,32.19652,16.57568,0,32.05062-4.68766,45.18921-12.79265v-146.5308Z"/><ellipse cx="103.804" cy="317.895" fill="#2ac494" stroke="#000" stroke-linecap="round" stroke-linejoin="round" stroke-width=".75" rx="66.181" ry="66.116"/><ellipse cx="211.813" cy="350.866" fill="#56f4cb" stroke="#000" stroke-linecap="round" stroke-linejoin="round" stroke-width=".75" rx="66.181" ry="66.116"/><path fill="#56f4cb" stroke="#000" stroke-linecap="round" stroke-linejoin="round" stroke-width=".75" d="M431.97499 322.2799c-7.48355-2.93241-15.62272-4.56034-24.14725-4.56034-36.55079 0-66.18112 29.60121-66.18112 66.11609s29.63033 66.11658 66.18112 66.11658c8.52452 0 16.6637-1.62792 24.14725-4.56034v-123.112zM44.78074 296.46726c-15.51157 0-29.59939 6.0541-40.0557 15.9119v84.84284c10.45631 9.85731 24.54413 15.91142 40.0557 15.91142 32.24797 0 58.39012-26.11656 58.39012-58.33308s-26.14215-58.33308-58.39012-58.33308z"/><rect width="427.25" height="192.974" x="4.725" y="365.676" fill="#82cef9"/><path fill="#fff" d="m36.7532,188.83592h92.85026s38.11463-22.48105,24.01053-25.77424c-14.1041-3.2932-25.77553,4.03938-25.77553,4.03938,0,0,31.71506-18.0048,13.71693-21.87753-31.28424-6.73155-71.47245,28.84949-71.47245,28.84949,0,0,13.859-9.63876,3.85037-10.81856-18.14564-2.13897-37.18011,25.58146-37.18011,25.58146Z"/><path fill="#cdebfc" d="m133.52349,454.94769c-13.22972,4.14424,14.77244,7.14153,18.77275,10.13883s-39.003,1.9982-45.00347,3.99639,54.00416,2.99729,60.00462,9.99098-6.00046,13.98737,16.00123,15.98557,61.11181-1.55622,61.11181-1.55622v-40.63421s-97.65722-2.06558-110.88694,2.07866Z"/><path fill="#fff" d="m276.29813,102.91349h96.92184s39.04434-32.12269,17.91446-38.54723c-18.48277-5.61968-50.98732,22.02699-50.98732,22.02699,0,0,16.53643-11.93128,4.13411-13.76687-20.76797-3.07372-37.87313,16.95036-37.87313,16.95036,0,0,8.78924-9.0011-.25252-10.06692-16.3927-1.93234-29.85744,23.40367-29.85744,23.40367Z"/><path fill="#cdebfc" d="m430.42477,501.0617s-40.9385.12503-49.78624,0c-8.84775-.12503-17.04556,1.29679-9.57608,2.90088,7.46948,1.60409,30.52921,3.58406,24.26586,4.69862-6.26335,1.11456,1.27646,4.75483,14.35941,5.88106,13.08295,1.12622-2.50594,3.23077-14.72426,2.80986s-9.56414,5.26424-3.30744,6.20984c6.25669.94561,16.78973,1.36652,14.68312,5.99651-2.10661,4.63,24.08565,2.38906,24.08565,2.38906v-30.88584Z"/><path fill="#3776b5" d="m431.44966,460.63949v-89.43464l-16.54839-9.08994-19.56108,27.38324s-17.33312,3.02583-22.56814-27.99328c-5.25114-31.01911-31.65429-50.34859-31.65429-50.34859-3.01781-1.61109-13.71077-31.71673-13.71077-31.71673,0,0,.61015-23.16-1.50317-26.58854-1.68922-2.71557-1.14425-19.84171-.85029-26.78563l44.4939-4.12494-44.2434-6.58488c-.13624-1.99746-.43021-4.26129-.96394-6.65l48.82969-8.72308-53.05682-2.19382c-1.16574-1.94795-2.58174-3.83053-4.29281-5.58358l35.50054-36.40122-45.34907,29.67511c-3.83489-1.6811-8.43217-2.88948-13.9177-3.37366l-6.5475-53.08098-5.11502,53.09733c-5.37126.49516-9.85427,1.68695-13.59651,3.35732l-45.34334-29.67511,35.6253,36.5322c-1.59583,1.70891-2.90892,3.53733-3.98224,5.41991l-37.01408,1.5345c-.12525-3.65076.05469-7.86863.05469-12.28212,0-7.73325-10.3371-53.62688-10.45149-57.46911h6.66238v-9.54485h7.8656v-8.96822h4.59252v-27.79229h-20.22592c10.29535-14.03518,29.42304-30.06831-11.13782-70.87205,0,0,4.42283,17.85497-3.35573,31.81917-7.39754,13.2622-36.38989,15.95727-12.4,39.05288h-18.59714v27.79229h4.58141v8.96822h7.86547v9.54485h4.82667c-1.2529,46.67051,10.13506,90.88255,10.13506,90.88255-26.31013,30.62177-16.03114,74.5172-16.03114,74.5172l9.44519,5.0172-.0105,14.7367-.34866.64249,8.75373,8.75089-2.56575,19.34094,5.79024,7.60178-2.81638,14.64962,17.73647,31.47159-20.75404,76.74224,13.858,8.70747-5.19645,34.18618,4.53721,41.21743.05628.51296h194.72752l-4.37876-24.81695,30.8482-64.04106s5.03176-3.7615,11.30226-9.01896Zm-214.30703-254.21409c-.35928-1.00715-.61028-2.17138-.77875-3.44489l32.80319,5.86092c-.42984,2.27456-.64238,4.4352-.73504,6.37291l-22.26307,3.31927c-4.0257-5.24551-8.22549-9.87683-9.02633-12.10821Zm27.41105,52.36776l-8.47087-8.45672s-1.20371-7.05271-1.80287-16.31437c-.20168-2.8846-1.76478-6.21534-3.88946-9.56241l18.65183,1.73671,1.9606,20.10782-6.44923,12.48897Zm8.98214-40.58079c-.5225.63712-1.08358,1.24619-1.53601,1.91063-.11451-1.04544-.18532-2.10089-.18532-3.17804,0-1.3279.10377-2.63458.28347-3.91834l2.47883,3.07413c-.37601.67029-.70281,1.39376-1.04097,2.11162Zm3.41555-5.90434l-3.61673-4.49497c.71893-2.08991,1.66126-4.06567,2.81638-5.94312l3.5513,7.26005c-.96431.99032-1.89028,2.02405-2.75094,3.17804Zm6.01926-6.12704l-3.98151-8.16328c1.31236-1.55694,2.80503-3.00973,4.4227-4.31032l3.39357,9.82877c-1.32359.78323-2.59261,1.66476-3.83477,2.64483Zm7.63743-4.60985l-3.59-10.39369c2.10856-1.30083,4.37985-2.40042,6.77664-3.26024l1.57422,11.82014c-1.59595.50052-3.19226,1.13155-4.76086,1.83379Zm14.16259-3.76613c-1.69911.20172-3.45339.45174-5.28349.85518l-1.58533-11.9621c2.21758-.52784,4.51609-.84909,6.86882-.97397v12.08089Zm9.64723-.37003c-1.52478-.07074-3.34462-.07074-5.40349.01683v-11.72769c2.33661.12489,4.62487.44613,6.81974.963l-1.41625,10.74786Z"/><path fill="#cdebfc" d="M6.3921 398.94327s97.17441.29677 118.17603 0c21.00162-.29677 40.46051 3.07814 22.73045 6.88573s-72.46622 8.50737-57.59911 11.15297c14.86712 2.64559-3.02989 11.2864-34.08447 13.95968-31.05458 2.67328 5.94827 7.66877 34.95051 6.66968s22.70209 12.49555 7.85078 14.74011c-14.85131 2.24456-39.85324 3.24365-34.85285 14.23373s-57.17133 5.67084-57.17133 5.67084v-73.31274zM96.39903 516.04051c8.00062 3.99639-19.00146 5.99459 13.001 8.99188 13.97547 1.30892 44.65645 1.25034 44.82996 6.61976.17351 5.36942-88.15472-3.37122-85.4938 0 2.66092 3.37122 23.42075 4.82928 11.57486 7.19144-15.91448 3.17347-40.9164 2.17437-62.9181 1.17527-7.20422-.32714-14.00108-7.99278 12.00092-7.99278 22.02441 0-9.00069-3.99639-9.81638-9.49143-.80873-5.44818 68.82092-10.49053 76.82154-6.49414z"/></g><g transform="translate(441.036 56.66)"><path fill="#fff" stroke="#000" stroke-linecap="round" stroke-linejoin="round" stroke-width=".75" d="m42.46376,78.83921v597.80234h890V78.83921H42.46376Zm449.20303,575.17599H64.35996V100.06803h427.30683v553.94718Z"/><ellipse cx="815.939" cy="195.622" fill="#82cef9" rx="56.512" ry="56.444"/><path fill="none" stroke="#4f83c1" stroke-linecap="round" stroke-linejoin="round" stroke-width=".75" d="M659.90649 160.65649c15.96206 0 15.96206 7.99202 31.92413 7.99202s15.9628-7.99202 31.9256-7.99202 15.9623 7.99202 31.92459 7.99202c15.96449 0 15.96449-7.99202 31.92899-7.99202s15.96449 7.99202 31.92899 7.99202M659.90649 173.64353c15.96206 0 15.96206 7.99202 31.92413 7.99202s15.9628-7.99202 31.9256-7.99202 15.9623 7.99202 31.92459 7.99202c15.96449 0 15.96449-7.99202 31.92899-7.99202s15.96449 7.99202 31.92899 7.99202M659.90649 186.63056c15.96206 0 15.96206 7.99202 31.92413 7.99202s15.9628-7.99202 31.9256-7.99202 15.9623 7.99202 31.92459 7.99202c15.96449 0 15.96449-7.99202 31.92899-7.99202s15.96449 7.99202 31.92899 7.99202M659.90649 199.6176c15.96206 0 15.96206 7.99202 31.92413 7.99202s15.9628-7.99202 31.9256-7.99202 15.9623 7.99202 31.92459 7.99202c15.96449 0 15.96449-7.99202 31.92899-7.99202s15.96449 7.99202 31.92899 7.99202M659.90649 212.60464c15.96206 0 15.96206 7.99202 31.92413 7.99202s15.9628-7.99202 31.9256-7.99202 15.9623 7.99202 31.92459 7.99202c15.96449 0 15.96449-7.99202 31.92899-7.99202s15.96449 7.99202 31.92899 7.99202M659.90649 225.59168c15.96206 0 15.96206 7.99202 31.92413 7.99202s15.9628-7.99202 31.9256-7.99202 15.9623 7.99202 31.92459 7.99202c15.96449 0 15.96449-7.99202 31.92899-7.99202s15.96449 7.99202 31.92899 7.99202"/><path d="M525.70462 369.6569c3.03487-3.38141 6.03983-6.79277 9.10906-10.14302 2.40471-2.62488 5.34356-5.46438 9.18104-5.27154 3.72421.18715 5.38527 3.6187 4.62986 6.9873-.82734 3.68935-4.08624 6.24107-6.86666 8.50849-.75359.61455-.13452 1.97146.7955 1.9205 3.42782-.18784 7.00431-.35265 10.30471.76098 1.71939.58016 3.11227 1.58 4.34854 2.89246 1.20298 1.27712 2.35798 2.53314 4.01277 3.21661 7.50474 3.09969 13.31755-4.86462 20.28415-5.62704l-1.08481-.82593c.56449 1.9587 1.12898 3.91741 1.69348 5.87611.20524.71214 1.01201 1.02276 1.65262.67233 7.16263-3.91811 13.42794-9.70218 21.16156-12.53849 5.99671-2.1993 13.92555-2.60985 18.95382 1.99927 2.49746 2.28928 4.47145 6.60576 8.52748 5.70835 1.41316-.31266.81512-2.48231-.59814-2.16963-1.69962.37605-3.0342-1.36023-4.00085-2.5053-1.08933-1.29039-2.12009-2.5456-3.48056-3.567-2.60053-1.95239-5.77547-2.91839-8.98707-3.20062-7.55542-.66396-14.4365 2.62152-20.62505 6.60581-4.02185 2.58933-7.88384 5.42568-12.0868 7.72479l1.65262.67233c-.56449-1.9587-1.12898-3.91741-1.69348-5.87611-.1246-.43235-.59791-.87922-1.08481-.82593-3.76171.41168-6.8539 2.39798-10.11014 4.15992-2.97957 1.61224-7.16931 3.24435-10.31006 1.11219-1.47895-1.00402-2.47507-2.58651-3.88134-3.68855-1.31705-1.03212-2.84543-1.75102-4.45324-2.20365-3.30022-.92908-6.80775-.80856-10.19538-.62293l.7955 1.9205c2.62289-2.13895 5.36301-4.42357 6.78702-7.57958 1.17772-2.61017 1.35365-5.91026-.16795-8.42799-1.61345-2.66971-4.75566-3.65537-7.72963-3.2227-3.49833.50896-6.25574 2.8645-8.59145 5.36501-3.24257 3.47135-6.3604 7.06689-9.53325 10.60204-.96478 1.07494.62135 2.67135 1.59099 1.59099h0zM653.01711 369.99491c1.32469-2.35264 4.46008-2.60845 6.84864-2.05718 3.06701.70786 5.81799 2.40095 8.95573 2.8627 6.33069.93163 11.8801-3.90267 18.15647-2.94444 1.2912.19713 2.52079.68534 3.49049 1.57429 1.07759.98786 1.81775 2.28874 3.13868 3.0059 2.65602 1.44202 5.80144-.31757 8.11218-1.6661 2.59871-1.51658 4.81545-3.46279 6.98177-5.53099 2.00883-1.91785 4.20015-4.16806 6.97257-4.89737 3.01053-.79195 6.06356 1.09827 6.63337 4.19116.60066 3.26033-2.41432 6.01375-5.54164 5.87247l.9714.55719c-.65734-1.2007-1.31467-2.40139-1.97201-3.60209l-.4036 1.53921c7.15613-3.1021 14.60868 2.79522 21.54935 3.8722 5.3268.82655 12.36929-1.28067 13.34972-7.40607l-2.05622.26874c4.40361 6.95622 14.11093 5.34013 20.80843 3.44176 1.39082-.39422.79971-2.56584-.59814-2.16963-5.56547 1.5775-14.51206 3.52454-18.26749-2.40775-.46754-.73856-1.89358-.74738-2.05622.26874-.43846 2.73933-2.59784 4.60346-5.14966 5.45097-3.07351 1.02078-6.27096.40049-9.27814-.56515-6.3131-2.02722-12.7864-5.57968-19.43726-2.69661-.56857.24647-.667 1.05808-.4036 1.53921.47474.86717.94949 1.73434 1.42423 2.60151.45007.82211.6767 1.48254 1.69404 1.56567 1.49641.12227 3.11528-.4499 4.33959-1.28146 2.53342-1.72073 3.89767-4.77233 3.11932-7.78537-.75617-2.92718-3.28-5.26704-6.29505-5.63595-3.23301-.39558-6.074 1.36048-8.44891 3.36087-2.74857 2.31512-5.09543 5.00466-8.15401 6.94633-1.54632.98165-3.53244 2.30285-5.40741 2.44625-1.98424.15175-2.88488-1.85297-4.16973-2.99519-5.86915-5.21761-13.50026.10461-19.84409.88161-4.52797.55459-8.13155-2.32195-12.43842-2.98633-3.19667-.49312-6.86384.22014-8.56719 3.24528-.71132 1.2633 1.23157 2.39876 1.94281 1.13562h0zM520.31489 406.46119c-.66892 1.16352-.398 2.50789.5418 3.44972 1.11278 1.11518 2.69139 1.19962 4.09864.6373 1.75558-.70151 3.2762-2.08719 4.78735-3.19065 1.80289-1.31649 3.60578-2.63298 5.40867-3.94947l-1.69281-.9714c.05496 3.00108-.41408 5.91047-1.39497 8.74656-.3231.93418.84579 1.7679 1.65262 1.27047 3.58307-2.20902 7.69226-3.39574 11.91059-3.32209 1.10166.01923 2.11587.49191 3.16619.79323 1.02673.29456 2.06783.53683 3.11901.72643 2.12501.38329 4.2885.57863 6.44821.54366 4.46196-.07225 8.80488-1.50723 13.26768-1.39865 4.12462.10035 7.88749 2.07945 11.93117 2.66644 2.03926.29602 4.0817.20978 6.00335-.58724 1.34508-.55788 4.09358-2.52498 5.40296-1.19973 1.01924 1.03159 2.61014-.55948 1.59099-1.59099-2.89757-2.93269-6.7542.89201-9.88858 1.24877-4.25712.48455-8.36206-1.86667-12.48422-2.53816-4.74155-.77238-9.29657.72016-13.99454 1.06779-2.40609.17804-4.84662.0908-7.22786-.3035-1.05386-.17451-2.09825-.40176-3.12921-.68143-1.09081-.2959-2.22206-.87923-3.3444-.96484-4.82678-.36819-9.81892 1.07717-13.90696 3.59751l1.65262 1.27047c1.04153-3.01142 1.53369-6.1591 1.47534-9.3447-.01431-.78118-.973-1.49701-1.69281-.9714-2.20353 1.60905-4.40707 3.21809-6.6106 4.82714-.93877.6855-1.86846 1.4854-2.91448 2.00519-.48051.23878-1.10331.49216-1.63414.28526-.36543-.14243-.83576-.57391-.59881-.98605.72294-1.2575-1.2205-2.39201-1.94281-1.13562h0zM610.54822 411.67664c1.37586-1.19967 3.2424-2.88442 5.23962-2.24201.97808.3146 1.26297 1.23836 1.92784 1.91723.52534.5364 1.20524.86973 1.95561.92287 1.4874.10534 2.94493-.79686 3.67183-2.0746 1.04967-1.84511.46731-4.08407-.22601-5.93663l-1.08481 1.42407c3.3656-.43949 7.82767-1.03666 10.4919 1.60292 1.28605 1.27416 1.97068 3.06684 3.53448 4.07628 1.33524.86189 3.14405 1.12254 4.47089.11427l-1.65262-1.27047c-.33119 2.11155 1.38543 3.21045 3.2941 3.43375 1.20268.14071 2.39654-.12423 3.57374-.35388 1.56559-.30542 3.11459-.69501 4.63878-1.16519 1.42606-.43991 2.82703-.95316 4.2034-1.52967.68195-.28564 1.4379-.7211 2.196-.68319.68653.03433 1.15042.49037 1.69005.87915 2.10027 1.51318 4.77585 1.90455 7.25018 1.20901 1.39182-.39124.80046-2.56277-.59814-2.16963-2.22935.62667-4.12065.01209-5.94156-1.30121-2.04613-1.47573-3.84402-.63755-5.96193.21109-2.256.90397-4.58698 1.62129-6.95968 2.14708-1.07666.23859-2.22803.55329-3.33552.55621-.28969.00076-1.96121-.11636-1.8798-.6354.13029-.83068-.77532-1.93713-1.65262-1.27047-1.67176 1.27037-3.17499-1.11385-4.00299-2.2658-.9525-1.32516-2.03025-2.43862-3.53026-3.13683-3.05965-1.42418-6.57966-1.12226-9.82841-.69803-.65157.08508-1.37071.66016-1.08481 1.42407.54749 1.46289 1.47382 3.98382-.31409 4.96846-1.43251.78892-2.14858-1.47716-3.22056-2.11659-3.04195-1.81451-6.19195.39836-8.4556 2.37213-1.09339.95338.50348 2.53924 1.59099 1.59099h0zM686.8712 411.42368c4.23261-.01114 8.46522-.02227 12.69783-.03341l6.34891-.0167c1.02135-.00269 2.10342-.08414 3.11357.11313.90237.17623 1.66389.71182 2.54667.93912 1.77958.45822 3.21251-.47526 4.92351-.7075.96467-.13094 1.7803.29035 2.68764.52961.74623.19677 1.51769.28851 2.28893.23183 3.16126-.23232 6.1813-2.77629 9.38288-2.17186 1.41514.26716 2.02154-1.90091.59814-2.16963-3.44398-.65019-6.14384 1.43105-9.39719 2.01273-1.78113.31846-3.19305-.63973-4.92081-.7211-1.86086-.08763-3.61228 1.34603-5.42559.66346-.84872-.31947-1.57826-.69988-2.48542-.84273-.93514-.14726-1.88039-.13032-2.82394-.12835-2.11631.00442-4.23261.01114-6.34891.0167-4.3954.01156-8.7908.02313-13.1862.03469-1.44759.00381-1.45032 2.25382 0 2.25h0zM773.01286 412.42746c2.11038-1.52184 4.22077-3.04367 6.33115-4.56551 1.05519-.76091 2.1119-1.51976 3.16558-2.28276.68231-.49408 1.42709-.96733 1.88432-1.69586.94749-1.50969.22109-3.24606-1.19222-4.15123-2.02203-1.29503-4.14136-.23307-6.31237-.61139-.78296-.13644-1.33183.31288-1.42407 1.08481-.60307 5.04681 4.81981 7.94646 8.83435 9.30298 5.64984 1.90908 11.67159 2.34258 17.55607 1.46882l-.59814-2.16963c-1.71189.70193-2.4048 2.49855-1.7984 4.24192.69638 2.00205 2.93883 2.72513 4.8844 2.62556 4.72634-.2419 8.56935-3.49625 12.98968-4.77774 1.07414-.3114 2.17913-.49522 3.3005-.42495 1.26918.07952 2.45144.55365 3.66377.89528 1.10807.31225 2.25956.53753 3.41056.35464 1.22446-.19457 2.09171-.97983 3.21236-1.40998 1.12209-.4307 2.07274.39377 3.10175.75207.99491.34643 2.02737.34274 3.05218.14134 1.94029-.38132 3.96012-1.92181 5.98756-1.65288 1.29934.17235 2.19411 1.35715 3.15811 2.12719.95447.76242 2.00547 1.36121 3.14198 1.80864 2.46631.97097 5.17606 1.09245 7.73296.42303 1.39959-.36642.80612-2.53727-.59814-2.16963-2.05088.53693-4.18477.45111-6.17902-.28639-2.0489-.75771-3.26231-2.38542-5.0736-3.46482-1.57425-.93814-3.36371-.79005-5.03935-.2267-1.57068.52806-3.35618 1.62945-5.06817 1.28277-.91347-.18498-1.68702-.79026-2.59111-1.01765-.97549-.24535-1.89728-.07818-2.79391.34553-.91478.43229-1.69075 1.09763-2.7395 1.16983-1.13074.07784-2.27523-.39906-3.33814-.72066-4.11411-1.24475-7.67888-.05639-11.42295 1.73554-2.11764 1.01351-4.21988 2.12564-6.52491 2.65395-1.05587.242-2.30308.41355-3.31336-.08065-.54061-.26445-1.58386-1.73463-.55712-2.15563 1.345-.5515.8442-2.38379-.59814-2.16963-5.0217.74565-10.18103.38314-15.04934-1.05418-3.38901-1.00057-9.02543-3.09181-8.49295-7.54799l-1.42407 1.08481c1.58283.27582 3.14985-.27579 4.7-.0332.59906.09375 1.77167.55345 1.55001 1.35644-.15563.56381-1.3561 1.15899-1.76077 1.45081-2.96773 2.14008-5.93546 4.28017-8.90318 6.42025-1.16374.8392-.04181 2.79187 1.13562 1.94281h0zM747.92287 413.40223c.98937-.0484 1.92199-.30245 2.84325-.65251.8685-.33001 1.72833-.72896 2.64093-.92379.07956-.01698.15942-.03253.23975-.04544.19937-.03206-.13498.01193.0675-.00809.18508-.0183.37131-.02716.55731-.02595.42954.00279.49621.0055.90666.12057.28822.08081.45713.15237.65099.29331-.08378-.06091.12295.10961.14216.12861.05236.05179.10641.10623.15136.16469-.09159-.11913.02429.05178.04912.09879.04592.08694.08845.17218.12803.26255.24378.55663 1.05823.68493 1.53921.4036.5743-.33591.64832-.98043.4036-1.53921-.74713-1.70596-2.8071-2.3166-4.52844-2.15695-2.02627.18793-3.76647 1.53078-5.79143 1.62983-.60701.02969-1.125.4958-1.125 1.125 0 .58627.51517 1.15483 1.125 1.125h0zM524.348 446.68102c-.6641-4.08291-.6666-8.25531-.00678-12.33894l-1.65262.67233c4.43675 1.94399 7.7078 6.12147 8.25752 10.97807.08654.76456.917 1.50965 1.69281.9714 2.84249-1.97207 5.08611-4.61367 6.46789-7.79422h-1.94281c2.0449 3.37502 3.67232 6.94825 4.86136 10.71142.17704.56032.78664.97876 1.38388.78574 4.65547-1.5045 9.31094-3.00899 13.96641-4.51349 1.24146-.4012 2.48292-.8024 3.72438-1.2036.57363-.18538 1.59196-.80575 2.01548-.20838.28774.40584.2276 1.28358.2726 1.75617.06091.63973.11399 1.29915.29772 1.91766.41716 1.4044 1.42343 2.3006 2.90419 2.43072 1.88019.16521 3.94376-.14208 5.81166-.37176 3.82053-.46977 7.48803-1.48988 10.4686-4.03058l-1.7669-.22769c.64684 1.05065 1.29369 2.1013 1.94053 3.15195.3405.55306 1.30275.82118 1.7669.22769 1.52397-1.94866 4.49488-2.59383 6.60321-1.14762 1.59667 1.09523 3.85417 4.03026 5.84908 1.80609.96439-1.07523-.62171-2.67166-1.59099-1.59099-.44571.49693-2.31913-1.56178-2.751-1.88871-.95882-.72583-2.09344-1.14429-3.28357-1.28725-2.39315-.28747-4.91423.59501-6.41773 2.51749l1.7669.22769c-.64684-1.05065-1.29369-2.1013-1.94053-3.15195-.40271-.65412-1.21181-.70085-1.7669-.22769-2.94684 2.51195-6.88589 3.23503-10.63527 3.55138-1.03493.08732-2.07501.16037-3.11306.19788-.7183.02595-1.33502.07147-1.64225-.67025-.45507-1.09868-.21987-2.419-.53872-3.55907-.31578-1.12909-1.10393-2.0274-2.32358-2.1338-1.01424-.08848-2.04381.38605-2.99007.69185-1.16387.37612-2.32774.75225-3.4916 1.12837-4.57788 1.47942-9.15576 2.95884-13.73364 4.43827l1.38388.78574c-1.24543-3.94165-2.94596-7.71324-5.08818-11.2489-.39605-.65367-1.59089-.81003-1.94281 0-1.22555 2.82093-3.12725 5.22937-5.6607 6.98703l1.69281.9714c-.63516-5.61146-4.16147-10.6379-9.3719-12.92088-.58869-.25794-1.52466-.11965-1.65262.67233-.72913 4.51258-.72707 9.02344.00678 13.53522.23187 1.42557 2.4004.82066 2.16963-.59814h0zM623.34569 448.63526c-.33423.28098-.94691-.10395-1.11091-.41685-.31757-.60589.22541-1.38054.67445-1.7515.84221-.69576 2.01149-.68335 2.97453-.27545.89709.37996 1.6861 1.13516 1.96065 2.08587.33055 1.14464.05532 2.27886 1.03545 3.17637 1.58931 1.45534 4.73934 1.38588 6.55679.48726 1.96776-.97293 3.12912-3.29555 2.42499-5.41955l-2.05622.86688c.6615 1.09518 1.74545 1.27214 2.93676 1.33085 1.71071.08431 2.96108 1.01934 4.46877 1.71128 3.03645 1.39357 6.26795.86643 9.4531.41291.83667-.11913 1.67551-.22955 2.51969-.27942.59248-.035 1.97702-.26253 2.39202.3098.29129.40171.20762 1.17805.28607 1.65236.08667.52399.232 1.03379.58205 1.44648.86088 1.01492 2.2105.86088 3.20395.1354 1.49635-1.09273 2.77982-2.64413 4.10135-3.93935 1.03583-1.01522-.5556-2.60577-1.59099-1.59099-1.16361 1.14045-2.29513 2.32921-3.49779 3.42817-.36145.33028-.38832.52964-.58513.19006-.07305-.12604-.05149-.39265-.06996-.53496-.06166-.47516-.1038-.95511-.2626-1.41027-.91136-2.61224-4.3914-2.01255-6.50965-1.73765-2.81139.36485-5.88638 1.14309-8.63472.07175-1.24797-.48647-2.34489-1.29063-3.61123-1.74417-.58818-.21066-1.17693-.31087-1.79845-.35428-.31985-.02234-1.24317.09297-1.44042-.23359-.64002-1.05962-2.46912-.37865-2.05622.86688.5172 1.56012-.72972 2.84116-2.21148 3.12285-.73358.13946-1.78372.12585-2.47974-.18636-.92082-.41305-.73156-1.06203-.89292-1.92796-.4432-2.37845-2.59709-4.16211-4.96217-4.43073-2.47551-.28116-5.28477 1.48731-5.24683 4.19374.03583 2.55559 3.11394 3.95248 5.03779 2.33518 1.10972-.9329-.48894-2.51744-1.59099-1.59099h0zM680.20439 451.57055c1.30158.27447 2.68704.22407 3.93787-.25298.33067-.12611.65745-.26804.96899-.43623.10392-.0561.20714-.11281.31372-.16384.0438-.02097.09644-.05557.14386-.06592-.06586.01437-.18368.06792-.0459.02373.11273-.03615.22438-.07066.33833-.10251.04149-.0116.20792-.02587.03372-.01336-.1902.01366.01996.00814.06154.00359.15035-.01645-.05307-.00757-.10511-.02063.14784.03712-.06497-.03678-.09722-.05387.15355.08138-.09457-.10414-.13411-.13564-.10315-.08219-.0275-.03012.01019.05762.23322.54279 1.07191.70487 1.53921.4036.56367-.36341.65313-.95846.4036-1.53921-.28701-.66797-1.06144-1.0062-1.75542-.95541-.64264.04704-1.23471.29179-1.79686.59439-.13611.07327-.27582.13825-.41328.20854-.16224.08296.23608-.08422-.06339.02553-.06442.02361-.12859.04773-.19353.0699-.31173.10641-.62705.16664-.94733.23747-.12917.02857.15853-.00937-.05797.00779-.08554.00678-.1708.0155-.2565.02058-.15413.00914-.30856.01237-.46294.00947-.17214-.00323-.34188-.02041-.51331-.03269.11263.00807.09689.0166-.00679-.00137-.10162-.01762-.20231-.03688-.30323-.05817-.5743-.12111-1.24333.16864-1.38388.78574-.12855.56439.16995 1.25403.78574 1.38388h0zM695.34483 451.70579c.58104-.6799 2.09082-2.45756 3.13788-1.71169.39985.28483.65037.79609.9357 1.1823.36809.49824.77026.96938 1.34121 1.23873.71439.33701 1.50989.28995 2.21234-.05853.63415-.31459 1.12377-.85247 1.74433-1.19441 1.25818-.69328 2.86427-.7461 4.16203-.12923 1.30101.61841 2.44409-1.32085 1.13562-1.94281-1.60543-.76311-3.42135-.95928-5.13351-.42301-.88998.27875-1.62788.72963-2.36088 1.2923-.47778.36676-.70478.62056-1.1249.11885-.94727-1.13124-1.59128-2.43249-3.27557-2.49515-1.76238-.06556-3.29305 1.27705-4.36524 2.53166-.93591 1.09515.64841 2.69394 1.59099 1.59099h0zM726.55749 453.13323c6.44123-5.30143 13.25847-10.79995 21.30448-13.41967 1.93617-.6304 3.93746-1.09714 5.96642-1.29269 1.54829-.14922 4.82012-.78998 5.42854 1.10293 1.23281 3.83551-.43835 8.36613-3.18699 11.0967-.75373.74877.00626 2.28742 1.09456 1.88031 2.91103-1.08894 5.89812-2.19788 9.00003-2.58441 3.12278-.38913 5.69251.31118 8.55102 1.48408 2.12403.87152 4.61545 1.32869 6.40073-.45894 1.32709-1.32884 1.81078-3.52171.30535-4.90147-.51866-.47536-1.40418-.43149-1.7669.22769-1.00077 1.81872-.04713 4.07529 1.82317 4.88188 2.2005.949 3.67115-.80995 4.84604-2.40338.28828-.39097.58715-.85239 1.02912-1.08487.65875-.34652 1.47115-.08065 2.14722.08935 1.15082.28938 2.3003.63187 3.39258 1.09962 1.95789.83844 4.14186 2.21473 4.33741 4.54476.06458.76954.66375 1.22697 1.42407 1.08481 7.64412-1.42922 17.00981-6.65392 24.21164-1.17265 1.15198.87676 2.27408-1.07633 1.13562-1.94281-7.80141-5.93761-17.66403-.60253-25.94539.94584l1.42407 1.08481c-.38018-4.52997-4.87064-6.58178-8.74956-7.64802-2.3069-.63412-4.31699-.76324-5.90333 1.26267-.48731.62234-1.1398 2.04462-2.02316 2.16012-.83667.1094-1.59727-1.05668-1.20667-1.76652l-1.7669.22769c.56997.52239.16576 1.24838-.30535 1.71948-.77672.77671-1.7979.66389-2.78652.39508-2.21118-.60124-4.09536-1.77165-6.41181-2.07494-4.73041-.61934-9.39813 1.02861-13.76059 2.6605l1.09456 1.88031c2.51126-2.49474 4.00692-5.85069 4.17542-9.39045.07833-1.64553-.02866-3.7321-.9682-5.1468-.95194-1.43337-2.62008-1.60124-4.20303-1.62211-7.69627-.10147-14.89294 3.24626-21.16349 7.44667-3.67316 2.46052-7.12425 5.2361-10.53514 8.04342-1.1188.92083.48092 2.50463 1.59099 1.59099h0zM841.19312 453.20522c3.52898-3.51223 7.65909-6.27625 12.2355-8.23433l-1.65262-1.27047c-.50541 2.81988 1.29193 5.0321 3.77205 6.16124 3.37709 1.53752 6.71775.47037 10.23127.1926.9899-.07826 2.00249-.0971 2.97807.11319.86417.18627 1.65099.6239 2.51817.78632 1.76801.33114 3.28022-.76169 4.76766-1.55863 3.46605-1.85705 7.25689-4.44644 11.32831-4.47153 1.86576-.0115 3.52077.67668 4.73602 2.11413 1.05771 1.25111 1.57863 2.92755.72289 4.4203-.23296.40637-.2 1.03939.17591 1.3633 3.01543 2.59832 6.50466.20886 9.84199-.13468 2.33696-.24057 3.63997 1.41371 5.55838 2.39826 1.70426.87465 3.6748.99068 5.18203-.30068 1.10134-.9436-.49639-2.52882-1.59099-1.59099-1.4458 1.23873-3.62113-.84166-4.77293-1.59068-1.34373-.87384-2.77041-1.3021-4.37649-1.16592-1.48021.12551-2.88545.60497-4.31162.98543-1.27719.34071-2.82621.76746-3.93938-.19174l.17591 1.3633c1.45781-2.54298.56866-5.50704-1.40362-7.50559-2.43932-2.47182-5.8805-2.81964-9.12419-1.97921-3.91895 1.01539-7.40375 3.38731-10.96952 5.2177-.96254.49409-1.52335.48317-2.51856.11586-.91258-.33681-1.81009-.55695-2.77968-.64683-1.96029-.18171-3.92122.21723-5.85492.48521-1.9635.2721-3.90007.39132-5.73226-.49895-1.33461-.6485-2.73979-1.83791-2.44489-3.48327.18402-1.0267-.73274-1.66406-1.65262-1.27047-4.74277 2.02926-9.0352 4.94782-12.69088 8.58615-1.02773 1.02285.56303 2.61407 1.59099 1.59099h0zM520.35796 490.65547c2.23882 1.6862 5.38977.32256 6.57933-1.96613 1.25924-2.42276 1.22075-5.73726-.10791-8.1236-1.01882-1.82984-4.29486-3.90379-5.6069-1.15893-1.27339 2.66401 1.02313 5.25303 3.40911 6.0982 1.45089.51395 3.0319.65208 4.54785.85539 2.0095.26951 4.02477.49263 6.04519.66246 1.76.14794 3.52327.25715 5.28808.3275.96263.03837 1.92572.06519 2.88899.08042.96166.01521 2.08819-.14899 3.03158.07043 1.4405.33505 1.07132 2.08769 1.45759 3.21611.42653 1.24602 1.39429 2.15495 2.58974 2.66058 2.66141 1.12568 5.36568.12796 7.66899-1.33477 1.46204-.92848 2.85498-2.06707 4.52271-2.60826.86814-.28172 1.8283-.45303 2.72954-.22478 1.01054.25592 1.57376 1.03209 2.33319 1.67016 2.32724 1.95532 5.75039 1.40146 7.46314-1.06624l-2.05622-.26874c.36173 2.05542.72346 4.11084 1.08519 6.16626.09887.5618.85407.98585 1.38388.78574 6.87536-2.59679 14.34624-3.04924 21.47285-1.23417 1.40379.35753 2.00264-1.81192.59814-2.16963-7.49097-1.90787-15.43321-1.49881-22.66913 1.23417l1.38388.78574c-.36173-2.05542-.72346-4.11084-1.08519-6.16626-.18279-1.03867-1.55944-.98449-2.05622-.26874-1.18319 1.70473-3.22228 1.28641-4.52151.05759-1.33299-1.26074-2.79973-1.99345-4.67811-1.85371-1.91181.14223-3.61765.97253-5.20226 2.0013-1.54751 1.00469-3.14409 2.336-5.00895 2.67231-1.4893.26859-3.39583-.13935-3.88059-1.7541-.48305-1.60905-.28511-3.25421-2.01437-4.15427-1.62778-.84724-3.99201-.44657-5.75184-.49203-2.4077-.0622-4.81342-.19672-7.21306-.40326-2.62948-.22632-5.2793-.49022-7.87918-.95169-1.60386-.28468-5.21361-1.53047-3.61252-3.80591l-.67233.517c2.14006-.77859 2.78531 2.98377 2.74357 4.38175-.03563 1.19331-.25504 2.59453-1.13378 3.48324-.80592.81506-2.0057 1.03736-2.93685.33605-1.15683-.87128-2.27937 1.08137-1.13562 1.94281h0zM614.66041 492.11576c-1.83816 1.52766-1.46005 4.20246-.08473 5.90347 1.75877 2.17526 4.6634 2.1739 7.05792 1.1117 2.894-1.28376 5.26187-3.75763 7.35556-6.06888 2.16773-2.39299 4.11767-4.9699 6.13452-7.48821 1.05324-1.31511 2.12388-2.6174 3.25238-3.86902.62708-.69549 3.17055-3.59057 3.64072-1.43479.27737 1.27176-.38233 2.83253-.82592 3.98554-.62446 1.62314-1.52822 3.14157-2.59933 4.50793-1.5946 2.03414-3.65061 4.45853-2.55548 7.21348.85543 2.15196 3.31508 3.08102 5.4944 2.94256 3.3019-.20979 5.53588-2.70669 7.89248-4.72602 2.9606-2.53689 6.79861-3.67355 10.65458-2.93664l-.78574-.78574c.72009 2.13017.70168 4.23256-.04835 6.35359-.24832.70224.39746 1.41969 1.08481 1.42407 5.34298.03402 10.69077.13709 16.03366.08391 2.48851-.02477 4.97489-.15111 7.43687-.5305 1.21593-.18737 2.42178-.44227 3.60801-.76892.87095-.23983 2.32391-1.05919 3.23371-.84773.70808.16458.73931 1.55623 1.19429 2.1291.55858.70331 1.41591.98794 2.28919 1.0369 1.14251.06406 2.32443-.15206 3.4629-.23788 1.31906-.09943 2.63941-.18235 3.96057-.24824 5.42526-.27058 10.94109-.37828 16.36247.0349.73313.05587 1.22598.10207 1.72276.67976.3531.41061.6017.85786 1.02357 1.21095.73163.61233 1.70148.87763 2.64602.85999 2.49791-.04666 4.3256-2.09508 6.74239-2.22431 1.44031-.07701 1.44937-2.3275 0-2.25-2.2131.11833-3.77768 1.55628-5.8437 2.08644-1.11118.28514-1.89048.12896-2.59826-.78788-.62908-.8149-1.24022-1.40723-2.2736-1.65878-1.08851-.26497-2.28968-.21497-3.40113-.26125-1.32166-.05503-2.64406-.09351-3.96669-.11494-2.728-.04421-5.45704-.01785-8.18365.07968-2.7272.09755-5.4495.27305-8.16838.50533-.44995.03844-1.0359.17874-1.4853.07622-.60099-.1371-.62221-.43321-.79096-.9627-.25389-.7966-.61216-1.50371-1.38671-1.90714-1.75792-.91563-4.08894.37499-5.80381.80635-2.58009.649-5.21498.91503-7.86894 1.00513-5.97057.20271-11.97216-.00637-17.9453-.04441l1.08481 1.42407c.86897-2.4574.88294-5.081.04835-7.54987-.11969-.35406-.39343-.71077-.78574-.78574-2.90635-.55543-5.86425-.31298-8.60571.8271-2.76732 1.15083-4.65695 3.2508-6.95201 5.07699-1.68263 1.33888-4.56798 2.64675-6.47909.88679-2.15542-1.98495 1.32696-5.13028 2.44998-6.71674 1.59104-2.24762 2.98887-5.15197 3.19545-7.93518.17582-2.36878-1.44461-4.62821-4.03128-3.82936-1.30243.40223-2.29141 1.42948-3.18514 2.40555-1.04288 1.13895-2.03457 2.32354-3.00641 3.52332-1.94412 2.40009-3.80272 4.87062-5.82887 7.20348-2.14839 2.4736-4.71702 5.5036-7.85654 6.70215-1.35524.51737-3.01704.63034-4.02902-.58308-.72739-.87219-1.0591-2.14078-.09562-2.94151 1.11467-.92638-.48456-2.51052-1.59099-1.59099h0zM734.72272 499.0117h.71833c.15489.00584.29937-.02645.43344-.09689.13947-.04537.26016-.12291.36206-.23261.10971-.1019.18724-.22258.23261-.36206.07044-.13407.10273-.27855.09689-.43344l-.04019-.29907c-.05345-.19058-.14989-.35606-.28932-.49643l-.22769-.17591c-.17547-.10177-.36474-.15296-.56781-.1536h-.71833c-.15489-.00584-.29937.02645-.43344.09689-.13947.04537-.26016.12291-.36206.23261-.10971.1019-.18724.22258-.23261.36206-.07044.13407-.10273.27855-.09689.43344l.04019.29907c.05345.19058.14989.35606.28932.49643l.22769.17591c.17547.10177.36474.15296.56781.1536h0zM748.74352 500.26713c9.56245-.04979 19.11514-1.04134 28.47979-2.98212 2.35504-.48807 4.69764-1.03631 7.02461-1.64429 1.74059-.45477 3.62219-1.08321 5.44386-.80789 2.04244.30869 2.38906 2.01201 3.25555 3.58633.36185.65743.8351 1.26993 1.46991 1.68501.37233.24345 2.83282.98034 2.45511 1.51626-.51425.72966.18209 1.67134.9714 1.69281 2.05957.05603 4.09274-.52151 5.77122-1.73115 1.68706-1.21583 2.71016-2.93982 3.67265-4.73998.83155-1.55526 1.65784-3.33503 3.34982-4.10665 1.33663-.60957 3.19873-.66524 3.59509 1.05821.35451 1.54149-.14298 3.17717.46829 4.68403.6445 1.58876 2.2768 2.17 3.90089 1.8554 3.75113-.72663 6.39391-4.46755 6.27541-8.19193-.04595-1.44432-2.29616-1.45069-2.25 0 .05849 1.83842-.67618 3.55102-2.06856 4.76613-1.12354.98049-3.71063 2.2482-3.93799-.04734-.14036-1.41715.11916-2.85383-.38944-4.22414-.45875-1.23601-1.48371-2.13012-2.76929-2.42393-3.04101-.69499-5.66862 1.34379-7.16669 3.78413-.96409 1.57049-1.63016 3.37251-2.87147 4.75912-1.4298 1.59716-3.46037 2.36577-5.57992 2.30811l.9714 1.69281c.79953-1.13444.27861-2.61774-.76069-3.40579-.70737-.53637-1.61713-.62466-2.34453-1.10261-.70912-.46594-1.00072-1.32283-1.33471-2.06988-1.34403-3.00616-3.89599-3.94555-7.05663-3.5213-1.72172.2311-3.38565.75114-5.06684 1.17224-2.09971.52593-4.21179 1.00267-6.33353 1.4311-4.22394.85291-8.48596 1.51377-12.77115 1.96869-4.78494.50798-9.59214.76358-14.40356.78864-1.4474.00754-1.45045 2.25755 0 2.25h0zM841.00225 499.73578l3.3996-2.24198c1.03391-.68184 2.13242-1.64859 3.27105-2.14359.52976-.2303.28771.00894.53534.53907.16877.36131.39682.6635.70801.91453.73728.59474 1.70757.71724 2.62412.73738 5.32293.11697 10.80897-.76039 15.97226-1.98404 1.40836-.33377.81211-2.50384-.59814-2.16963-2.75185.65216-5.53546 1.16153-8.34683 1.47553-1.33694.14932-2.67811.26077-4.02142.33325-1.11175.05999-2.74687.39462-3.83038.01925-.78357-.27146-.71597-1.47784-1.4741-1.96993-.7438-.48279-1.64299-.34769-2.41147.01456-1.18145.55691-2.27574 1.44117-3.36409 2.15892l-3.59958 2.37386c-1.20365.79379-.07787 2.74308 1.13562 1.94281h0zM710.73318 592.45617c8.54844-4.12416 16.87746-8.69526 24.93541-13.71132 4.06074-2.52781 8.05259-5.16621 11.9695-7.91163 3.45998-2.42516 6.93609-4.88331 10.08126-7.7137 3.4196-3.07736 6.31211-6.63851 8.09487-10.90625.2689-.64372-.41443-1.48763-1.08481-1.42407-12.14213 1.15128-23.59387 7.11232-31.37854 16.52715-.49073.59349-.40968 1.70431.49643 1.88031 9.41433 1.82862 18.90628.19588 28.1563-1.77905 2.31833-.49498 4.62921-1.03192 6.9539-1.49636 2.09094-.41774 4.3302-.77691 6.43832-.27326 1.7053.40742 3.08703 1.38443 3.74087 3.05396.48544 1.23952.54873 2.90709-.62042 3.79272-1.01573.76942-.43554 2.28408.86688 2.05622 5.27101-.92219 10.26499-2.8897 15.03126-5.28261 2.46133-1.23571 4.86439-2.58329 7.24769-3.96239 2.1195-1.22645 4.19177-2.5905 6.40193-3.64982 2.96826-1.42267 9.39879-3.26931 10.25066 1.66638.39908 2.31222-1.11967 4.6951-2.54829 6.37164-1.74009 2.04206-3.91645 3.76884-6.045 5.38696-4.87742 3.70782-10.19726 6.77755-15.4938 9.83616l1.65262 1.27047c7.84181-19.17863 28.47651-32.82833 49.286-31.94098 4.97166.212 11.45344 1.79023 13.29891 7.06289.33056.94444 1.96733 1.18829 2.16963 0 1.22074-7.17055 2.44148-14.3411 3.66222-21.51165.19671-1.15549-1.45672-2.10668-2.05622-.86688-2.20797 4.5662-1.64831 11.38546 3.34405 13.95501 4.05915 2.08923 9.89045.42396 11.24567-4.19572.40842-1.39222-1.76224-1.98684-2.16963-.59814-.96447 3.28769-5.4186 4.30873-8.19145 2.71463-3.63247-2.08829-3.94227-7.31457-2.28584-10.74017l-2.05622-.86688c-1.22074 7.17055-2.44148 14.3411-3.66222 21.51165h2.16963c-1.76676-5.04779-6.80479-7.48649-11.78619-8.32411-5.33997-.89792-10.9782-.36406-16.23845.79124-10.99222 2.41418-21.22655 8.37038-28.84948 16.63765-4.26709 4.62777-7.66809 9.94777-10.05004 15.77331-.38886.95102.87365 1.72031 1.65262 1.27047 5.29705-3.05891 10.61433-6.13028 15.4938-9.83616 3.99638-3.03518 9.30188-6.99997 9.7419-12.46562.17733-2.20273-.82368-4.3831-2.66048-5.62993-1.70893-1.16003-3.86547-1.2527-5.84346-.9375-5.22846.83317-9.77333 4.39979-14.28739 6.9216-5.98342 3.34268-12.2234 6.2793-19.02258 7.46886l.86688 2.05622c2.20253-1.66843 2.52091-4.43353 1.43093-6.87846-1.32395-2.96977-4.29076-4.2667-7.41156-4.38489-3.86561-.1464-7.81281 1.11587-11.55551 1.92143-4.3073.92708-8.63651 1.81731-13.01994 2.29959-4.87947.53686-9.81746.57062-14.65038-.36812l.49643 1.88031c7.39163-8.93947 18.22181-14.77151 29.78755-15.86814l-1.08481-1.42407c-3.17492 7.60042-10.45298 12.57821-16.9526 17.14245-7.51347 5.27619-15.30357 10.15831-23.32697 14.62095-4.51815 2.51301-9.11113 4.8884-13.76746 7.13483-1.30375.62899-.16399 2.5698 1.13562 1.94281h0z"/></g><g transform="translate(679.625 603.625)"><path fill="#ff5760" stroke="#000" stroke-linecap="round" stroke-linejoin="round" stroke-width=".75" d="m56.11381,216.8359h200.55104c8.1422,0,14.74276,6.60667,14.74276,14.75634v264.72948c0,8.1497-6.60057,14.75634-14.74276,14.75634H56.11381c-8.1422,0-14.74276-6.60665-14.74276-14.75634V231.59225c0-8.14967,6.60056-14.75634,14.74276-14.75634Z"/><path stroke="#000" stroke-linecap="round" stroke-linejoin="round" stroke-width=".75" d="m63.35262,496.32177V231.59224c0-8.14982,6.6004-14.7563,14.74272-14.7563h-8.99243c-8.14232,0-14.74272,6.60648-14.74272,14.7563v264.72953c0,8.14982,6.6004,14.7563,14.74272,14.7563h8.99243c-8.14232,0-14.74272-6.60648-14.74272-14.7563Z"/><path fill="#6CF" stroke="#000" stroke-linecap="round" stroke-linejoin="round" stroke-width=".75" d="m94.32781,216.8359h200.55111c8.14222,0,14.74276,6.60667,14.74276,14.75634v264.72948c0,8.1497-6.60054,14.75634-14.74276,14.75634H94.32781c-8.14221,0-14.74276-6.60665-14.74276-14.75634V231.59225c0-8.14967,6.60056-14.75634,14.74276-14.75634Z"/><path fill="#cdebfc" stroke="#000" stroke-linecap="round" stroke-linejoin="round" stroke-width=".75" d="m103.99988,227.39762h181.50008c7.36873,0,13.34227,6.1608,13.34227,13.76044v246.86234c0,7.59967-5.97355,13.76035-13.34227,13.76035H103.99988c-7.36873,0-13.34227-6.16069-13.34227-13.76035v-246.86234c0-7.59964,5.97355-13.76044,13.34227-13.76044Z"/><ellipse cx="126.915" cy="525.998" fill="#ff5760" stroke="#000" stroke-linecap="round" stroke-linejoin="round" stroke-width=".75" rx="14.577" ry="14.591" transform="rotate(-.072 126.924 526.03)"/><ellipse cx="126.915" cy="525.893" fill="#6CF" stroke="#000" stroke-linecap="round" stroke-linejoin="round" stroke-width=".75" rx="7.232" ry="7.238"/><ellipse cx="235.068" cy="525.998" fill="#ff5760" stroke="#000" stroke-linecap="round" stroke-linejoin="round" stroke-width=".75" rx="14.577" ry="14.591" transform="rotate(-.072 235.067 526.001)"/><ellipse cx="235.068" cy="525.893" fill="#6CF" stroke="#000" stroke-linecap="round" stroke-linejoin="round" stroke-width=".75" rx="7.232" ry="7.238"/><line x1="90.362" x2="299.099" y1="246.458" y2="247.623" fill="none" stroke="#fff" stroke-linecap="round" stroke-linejoin="round" stroke-width=".75"/><line x1="90.362" x2="299.099" y1="265.858" y2="267.022" fill="none" stroke="#fff" stroke-linecap="round" stroke-linejoin="round" stroke-width=".75"/><line x1="90.362" x2="299.099" y1="285.257" y2="286.422" fill="none" stroke="#fff" stroke-linecap="round" stroke-linejoin="round" stroke-width=".75"/><line x1="90.362" x2="299.099" y1="304.657" y2="305.822" fill="none" stroke="#fff" stroke-linecap="round" stroke-linejoin="round" stroke-width=".75"/><line x1="90.362" x2="299.099" y1="324.057" y2="325.221" fill="none" stroke="#fff" stroke-linecap="round" stroke-linejoin="round" stroke-width=".75"/><line x1="90.362" x2="299.099" y1="343.456" y2="344.621" fill="none" stroke="#fff" stroke-linecap="round" stroke-linejoin="round" stroke-width=".75"/><line x1="90.362" x2="299.099" y1="362.856" y2="364.021" fill="none" stroke="#fff" stroke-linecap="round" stroke-linejoin="round" stroke-width=".75"/><line x1="90.362" x2="299.099" y1="382.256" y2="383.42" fill="none" stroke="#fff" stroke-linecap="round" stroke-linejoin="round" stroke-width=".75"/><line x1="90.362" x2="299.099" y1="401.655" y2="402.82" fill="none" stroke="#fff" stroke-linecap="round" stroke-linejoin="round" stroke-width=".75"/><line x1="90.362" x2="299.099" y1="421.055" y2="422.22" fill="none" stroke="#fff" stroke-linecap="round" stroke-linejoin="round" stroke-width=".75"/><line x1="90.362" x2="299.099" y1="440.455" y2="441.619" fill="none" stroke="#fff" stroke-linecap="round" stroke-linejoin="round" stroke-width=".75"/><path fill="none" stroke="#000" stroke-linecap="round" stroke-linejoin="round" stroke-width=".75" d="m103.99988,227.39762h181.50008c7.36873,0,13.34227,6.1608,13.34227,13.76044v246.86234c0,7.59967-5.97355,13.76035-13.34227,13.76035H103.99988c-7.36873,0-13.34227-6.16069-13.34227-13.76035v-246.86234c0-7.59964,5.97355-13.76044,13.34227-13.76044Z"/><line x1="90.362" x2="299.099" y1="459.854" y2="461.019" fill="none" stroke="#fff" stroke-linecap="round" stroke-linejoin="round" stroke-width=".75"/><path fill="#4f83c1" stroke="#000" stroke-linecap="round" stroke-linejoin="round" stroke-width=".75" d="m165.38299,2.33159c-6.19888,0-11.22403,5.02975-11.22403,11.23457v217.4919c1.06597.00616,6.19072.03515,6.19072.03515V17.62107c0-5.04982,4.09163-9.14543,9.13707-9.14543h35.88191c5.04544,0,9.13707,4.09561,9.13707,9.14543v213.54227c1.66427-.01999,4.92929.01316,6.19079-.01753V13.56615c0-6.20482-5.02522-11.23457-11.2241-11.23457h-44.08943Z"/><line x1="90.362" x2="299.099" y1="481.007" y2="482.172" fill="none" stroke="#fff" stroke-linecap="round" stroke-linejoin="round" stroke-width=".75"/><path fill="#ff5760" stroke="#000" stroke-linecap="round" stroke-linejoin="round" stroke-width=".75" d="m235.20189,216.83325h-13.95383c-.13294,12.64554-15.23376,22.86437-33.84164,22.86437s-33.69259-10.21883-33.82554-22.86437h-13.95383c-.00634.22389-.04586.44388-.04586.66875,0,17.98434,21.4024,32.55605,47.82181,32.55605s47.84474-14.57171,47.84474-32.55605c0-.22463-.03927-.4451-.04586-.66875Z"/></g><g transform="translate(413.625 833.625)"><path fill="#4f83c1" stroke="#000" stroke-linecap="round" stroke-linejoin="round" stroke-width=".752" d="M190.71499 50.72596h0c7.33001 4.3769 9.72713 13.87238 5.35458 21.20866l-15.6005 26.17461c-4.37254 7.33628-13.85918 9.73565-21.18919 5.35874-7.32949-4.37659-9.72664-13.87201-5.3541-21.20829l15.6005-26.17461c4.37254-7.33628 13.85921-9.7357 21.1887-5.35911zM309.93526 118.5099h0c7.33001-4.3769 9.72713-13.87238 5.35458-21.20866l-20.60975-41.2163c-4.37254-7.33628-13.85918-9.73565-21.18919-5.35874-7.32949 4.37659-9.72664 13.87201-5.3541 21.20829l20.60975 41.2163c4.37254 7.33628 13.85921 9.7357 21.1887 5.35911z"/><path fill="#82cef9" stroke="#000" stroke-linecap="round" stroke-linejoin="round" stroke-width=".752" d="M184.01406 48.39553h0c8.53528 0 15.45418 6.92538 15.45418 15.46795v30.47847c0 8.54257-6.91891 15.46789-15.45418 15.46789-8.53467 0-15.45357-6.92532-15.45357-15.46789v-30.47847c0-8.54257 6.91891-15.46795 15.45357-15.46795zM281.32327 48.39553h0c8.53473 0 15.45364 6.92538 15.45364 15.46795v30.47847c0 8.54257-6.91891 15.46789-15.45364 15.46789-8.53521 0-15.45418-6.92532-15.45418-15.46789v-30.47847c0-8.54257 6.91898-15.46795 15.45418-15.46795z"/><path fill="#4f83c1" stroke="#000" stroke-linecap="round" stroke-linejoin="round" stroke-width=".752" d="m231.52209,57.67662c-15.02658,0-27.17777,12.04848-27.47907,27.01669h8.02951c.29859-10.52299,8.8643-18.97981,19.44956-18.97961,10.58473,0,19.15043,8.45662,19.44896,18.97961h8.02957c-.30137-14.96815-12.45256-27.01669-27.47853-27.01669Z"/><path fill="#82cef9" stroke="#000" stroke-linecap="round" stroke-linejoin="round" stroke-width=".752" d="m174.70219,76.56371h82.96509c24.47352,0,44.31303,19.85788,44.31303,44.35407v165.25106c0,13.51691-10.94701,24.47406-24.45141,24.47406h-122.68778c-13.5044,0-24.45195-10.95715-24.45195-24.47406V120.91778c0-24.49619,19.83951-44.35407,44.31303-44.35407Z"/><path fill="#fff" d="m196.35911,76.56371h82.96563c24.47359,0,44.31303,19.85788,44.31303,44.35407v165.25106c0,13.51691-10.94749,24.47406-24.45189,24.47406h-122.68785c-13.5044,0-24.45195-10.95715-24.45195-24.47406V120.91778c0-24.49619,19.83951-44.35407,44.31303-44.35407Z"/><path fill="none" stroke="#000" stroke-linecap="round" stroke-linejoin="round" stroke-width=".752" d="m196.35911,76.56371h82.96563c24.47359,0,44.31303,19.85788,44.31303,44.35407v165.25106c0,13.51691-10.94749,24.47406-24.45189,24.47406h-122.68785c-13.5044,0-24.45195-10.95715-24.45195-24.47406V120.91778c0-24.49619,19.83951-44.35407,44.31303-44.35407Z"/><path fill="#4f83c1" stroke="#000" stroke-linecap="round" stroke-linejoin="round" stroke-width=".752" d="m196.35911,76.56371h82.96563c24.47359,0,44.31303,19.85788,44.31303,44.35407v165.25106c0,13.51691-10.94749,24.47406-24.45189,24.47406h-122.68785c-13.5044,0-24.45195-10.95715-24.45195-24.47406V120.91778c0-24.49619,19.83951-44.35407,44.31303-44.35407Z"/><path fill="#6CF" stroke="#000" stroke-linecap="round" stroke-linejoin="round" stroke-width=".752" d="m211.91187,225.22748c-29.14628,0-52.7602,23.65291-52.7602,52.82626v25.34779c4.42968,4.46478,10.56093,7.24192,17.34474,7.24192h122.6917c6.7832,0,12.91445-2.77714,17.34406-7.24192v-25.34779c0-29.17335-23.61385-52.82626-52.7602-52.82626h-51.86009Z"/><path fill="#82cef9" stroke="#000" stroke-linecap="round" stroke-linejoin="round" stroke-width=".752" d="m196.35911,76.57204c-24.47352,0-44.31303,19.85788-44.31303,44.35407v39.12141c23.09652,10.61504,52.03076,16.99702,83.5545,16.99702,33.57542,0,64.27492-7.2009,88.03719-19.09331v-37.02512c0-24.49619-19.83944-44.35407-44.31303-44.35407h-82.96563Z"/><path fill="#ff5760" stroke="#000" stroke-linecap="round" stroke-linejoin="round" stroke-width=".752" d="m196.35911,76.57204c-24.47352,0-44.31303,19.85788-44.31303,44.35407v17.6374c20.94294,12.66029,50.57613,20.60025,83.5545,20.60079,35.36455,0,66.97356-9.09368,88.03719-23.39011v-14.84808c0-24.49619-19.83944-44.35407-44.31303-44.35407h-82.96563Z"/><line x1="166.124" x2="309.561" y1="251.322" y2="252.235" fill="none" stroke="#000" stroke-linecap="round" stroke-linejoin="round" stroke-width=".752"/><path fill="#4f83c1" stroke="#000" stroke-linecap="round" stroke-linejoin="round" stroke-width=".752" d="m232.04335,159.34284h11.59721c4.59642,0,8.32648,3.52445,8.32648,7.86619,0,4.34113-3.73005,7.86565-8.32648,7.86565h-11.59721c-4.59642,0-8.32587-3.52452-8.32587-7.86565,0-4.34174,3.72945-7.86619,8.32587-7.86619Zm-3.25424-5.14563c-7.17484,0-12.98267,5.83034-12.98267,13.01182,0,7.18094,5.80784,12.99409,12.98267,12.99409h18.10569c7.17484,0,12.98267-5.81315,12.98267-12.99409,0-7.18148-5.80784-13.01182-12.98267-13.01182h-18.10569Z"/><path d="m170.63928,249.68266h0c.77549-.62928,1.91435-.5101,2.54305.26666l1.64233,2.02813c.6287.77614.50962,1.91606-.26587,2.54534-.77603.62928-1.91489.5101-2.54359-.26666l-1.64233-2.02813c-.6287-.77614-.50962-1.91606.26641-2.54534Z"/><path fill="#4f83c1" stroke="#000" stroke-linecap="round" stroke-linejoin="round" stroke-width=".752" d="m171.83298,254.78057l3.2969-2.65457c1.20695-.97187,3.06478-.8627,4.14988.24398l15.35729,15.66416c2.84651,2.90295,2.58673,7.32286-.5794,9.87267l-.61544.49568c-3.16668,2.54926-7.59081,1.89332-9.88233-1.46593l-12.33065-18.07813c-.87354-1.28021-.60321-3.10592.60375-4.07786Z"/><path fill="none" stroke="#000" stroke-linecap="round" stroke-linejoin="round" stroke-width=".752" d="m171.83298,254.78057l3.2969-2.65457c1.20695-.97187,3.06478-.8627,4.14988.24398l15.35729,15.66416c2.84651,2.90295,2.58673,7.32286-.5794,9.87267l-.61544.49568c-3.16668,2.54926-7.59081,1.89332-9.88233-1.46593l-12.33065-18.07813c-.87354-1.28021-.60321-3.10592.60375-4.07786Z"/><path fill="#82cef9" stroke="#000" stroke-linecap="round" stroke-linejoin="round" stroke-width=".752" d="m174.40368,255.65438l1.42799-1.14987c.94332-.75956,2.32201-.60985,3.08087.33372.75832.94365.60875,2.32416-.33402,3.08318l-1.42853,1.15041c-.94277.75902-2.32201.60938-3.08033-.33427-.75825-.94365-.60875-2.32416.33402-3.08318Z"/></g><g transform="translate(848 395)"><ellipse cx="61.552" cy="49.762" fill="#2ac494" stroke="#000" stroke-linecap="round" stroke-linejoin="round" stroke-width=".75" rx="3.99" ry="7.487" transform="rotate(-52.734 61.552 49.762)"/><path d="m114.68894,42.14334c-5.67258,5.626-9.54497,5.56866-13.74033,13.83703-4.19681,8.27124,1.15281,10.97094-3.04401,19.24218-4.19702,8.27165-9.54664,5.57194-13.74366,13.84359-4.1976,8.27279,1.15202,10.97249-3.04557,19.24527-4.1976,8.27279-15.39819,6.46247-14.03539,15.63396.79551,5.3537,43.95917,2.5514,49.38993,2.5514s13.85928-7.55366,13.85928-12.11767c0-4.5656-5.99554-4.5656-5.99554-9.13119,0-4.56415,5.99554-4.56415,5.99554-9.1283,0-4.56729-5.99554-4.56728-5.99554-9.13457,0-4.56729,5.66709-3.75538,5.66709-8.32267,0,0-8.99331-35.8758-15.3118-36.51905Z"/><polygon fill="#fff" stroke="#000" stroke-linecap="round" stroke-linejoin="round" stroke-width=".75" points="115.256 141.565 71.411 141.565 78.857 66.235 106.983 66.235 115.256 141.565"/><path fill="#fff" stroke="#000" stroke-linecap="round" stroke-linejoin="round" stroke-width=".75" d="m82.24861,75.49934c-3.09338-3.60711-5.79626-7.73227-7.81665-12.27852-7.21141-16.22709-.7403-30.41031,16.66704-34.69661,10.98999-2.70613,30.9502,2.79741,33.82526,26.43515,2.61369,21.48886-2.81878,34.56011-11.33209,36.25893-3.49962.69834-7.86129.0271-12.45331-1.804"/><path d="m68.72316,42.14334c-5.67258,5.626-9.54497,5.56866-13.74033,13.83703-4.19681,8.27124,1.15281,10.97094-3.04401,19.24218-4.19702,8.27165-9.54664,5.57194-13.74366,13.84359-4.1976,8.27279,1.15202,10.97249-3.04557,19.24527-4.1976,8.27279-15.39819,6.46247-14.03539,15.63396.79551,5.3537,43.95917,2.5514,49.38993,2.5514s13.85928-7.55366,13.85928-12.11767c0-4.5656-5.99554-4.5656-5.99554-9.13119,0-4.56415,5.99554-4.56415,5.99554-9.1283,0-4.56729-5.99554-4.56728-5.99554-9.13457,0-4.56729,5.66709-3.75538,5.66709-8.32267,0,0-8.99331-35.8758-15.3118-36.51905Z"/><path d="m131,59.72794c-3.99702-.99655-4.11169-12.8999-6.97963-17.5851-8.10743-13.24468-26.05872-15.30849-32.92137-13.61864-16.46906,4.05526-23.14119,16.97064-17.70649,32.09299,0,0,.21812-.03961.57302-.01289,1.32471.09975,4.16612,1.6319,5.07314,9.08913,4.6072-12.44688,9.99256-8.96895,19.98512-8.96895,12.99033,0,14.98884-19.931,18.98587-19.931s6.99479,18.93445,12.99033,18.93445Z"/><path fill="#fff" stroke="#000" stroke-linecap="round" stroke-linejoin="round" stroke-width=".75" d="m120.08924,62.88789s2.70841,6.54859.52614,7.02711l-1.95189.428"/><path fill="#56f4cb" stroke="#000" stroke-linecap="round" stroke-linejoin="round" stroke-width=".75" d="m71.54426,64.21241s10.93209-4.72835,11.49145-16.44307c.49963-10.46377,23.98215-25.9103,29.97768-14.94825,0,0-1.52992-9.41042-19.48549-10.46377-16.98735-.99655-24.01889,14.75627-34.97396,16.94135-4.99628.99655-4.99628,4.98275-3.99702,6.97585,3.99702-4.98275,14.60403,3.86667,16.98735,17.9379Z"/><path fill="#fff" stroke="#000" stroke-linecap="round" stroke-linejoin="round" stroke-width=".75" d="m76.38728,61.08544c-2.8761-.89089-5.60404-.56357-7.27207,1.15522-2.85348,2.9403-1.52469,8.83922,2.96794,13.17561,4.49263,4.33638,10.44782,5.46813,13.3013,2.52783"/><path fill="none" stroke="#000" stroke-linecap="round" stroke-linejoin="round" stroke-width=".75" d="m117.51004,39.29867s-1.99851,3.9862-3.4974,11.46032c-1.38572,6.90983-8.49368,11.46032-18.48624,9.46722"/></g><g transform="translate(863.625 626.625)"><path stroke="#000" stroke-linecap="round" stroke-linejoin="round" stroke-width=".751" d="M513.43147 107.52654c7.38469 4.42702-7.00784 52.01364-79.08843 46.01206s9.01007-88.02308 79.08843-46.01206zM445.14911 444.00777s1.0507 18.00422 28.02178 11.02717c26.97108-6.97705 31.62095-16.8437 31.62095-16.8437 0 0-54.07145-8.67969-59.64273 5.81653z"/><path fill="#fff" stroke="#000" stroke-linecap="round" stroke-linejoin="round" stroke-width=".751" d="m522.18889,344.56773L437.14091,45.92952c-9.17704-32.4402-43.51028-50.75002-75.59264-40.31335l-.00012.00004c-31.3653,10.2034-48.41414,43.97549-37.98375,75.2421l116.29064,346.59751c5.40999,17.20355,23.72224,26.79936,40.96248,21.46485l140.60088-43.50514c-13.38976-46.12188-82.09647-13.75981-99.22951-60.84779Z"/><path fill="#56f4cb" stroke="#000" stroke-linecap="round" stroke-linejoin="round" stroke-width=".751" d="m543.17816,364.90617s32.17376.40367,47.25408,10.05462c0,0-15.46222,3.38529,9.12714,37.18341l-70.76643,21.64604s-24.94914-39.87186,14.3852-68.88408Z"/><path fill="#56f4cb" stroke="#000" stroke-linecap="round" stroke-linejoin="round" stroke-width=".751" d="m445.14911,444.00777s-9.45539,17.78107,3.88536,29.68403c10.11331,9.02335,43.62617,1.05846,55.49135-2.40779,2.35147-.68695,1.72206-5.63404,2.57749-7.92781.33166-.88933.99975-1.58879,2.30542-1.44994,3.26417.34712,15.02061,5.63949,20.64358,3.7134,4.58541-1.57069,69.95785-23.09405,93.92692-30.98361,4.89359-1.61075,7.6609-6.76798,6.30165-11.7335l-4.10093-14.8281c-1.49207-2.58712-4.58368-3.78288-7.42776-2.86597-22.57326,7.27745-116.48713,37.51367-129.38245,40.99626-14.6736,3.96284-44.28468,7.85534-44.22065-2.19697Z"/><polygon stroke="#000" stroke-linecap="round" stroke-linejoin="round" stroke-width=".751" points="240.126 213.554 244.13 222.557 249.136 214.555 240.126 213.554"/><path stroke="#000" stroke-linecap="round" stroke-linejoin="round" stroke-width=".751" d="m437.3464,211.55382s5.0056,13.00341-48.05373,21.00551-93.1041,0-98.1097-14.00367,111.12425-65.01705,146.16343-7.00184Z"/><path fill="#6CF" stroke="#000" stroke-linecap="round" stroke-linejoin="round" stroke-width=".751" d="m513.43147,107.52654s-45.81217-29.14907-81.09067-82.02151c-14.01567-21.00551-45.92877-27.19061-68.29291-20.6309L103.17979,58.97304l-23.78294,4.54196c-34.44721,83.939,13.93648,124.12068,68.08687,111.81667l192.85846-44.46796,1.89787,26.67594s65.2353-5.53108,95.10634-38.00997c34.03806-37.0097,76.08507-12.00315,76.08507-12.00315Z"/><path stroke="#000" stroke-linecap="round" stroke-linejoin="round" stroke-width=".751" d="M151.40044 436.01184s-14.801 16.19276 11.51395 25.33506c26.31495 9.1423 41.34154 2.8798 41.34154 2.8798 0 0-40.17212-37.18893-52.85549-28.21486zM300.06775 470.34925v4.62426l-10.01119-1.62348s6.00672-6.00157 10.01119-3.00079z"/><path fill="#fff" stroke="#000" stroke-linecap="round" stroke-linejoin="round" stroke-width=".751" d="m288.50909,107.75987l-129.28657,312.29056c-7.4121,17.44586,1.38607,37.52888,19.24246,43.92387l74.78455,33.38204,66.14134.24469c-3.00336-25.00656-19.02127-24.52938-31.0347-27.53017-13.03582-17.85356-25.32984-32.73026-16.31976-53.73577l124.8925-260.2436c14.79052-30.8196.52788-67.7195-31.15617-80.60639"/><path fill="#56f4cb" stroke="#000" stroke-linecap="round" stroke-linejoin="round" stroke-width=".751" d="m271.03529,433.33955s6.60642,22.25029,14.01567,29.00761c7.00784,2.00052,13.01455,4.00105,15.01679,8.0021,0,0-8.00896-5.00131-7.50479,29.7271l-71.58364-18.72421s1.22099-45.67212,50.05597-48.01259Z"/><path fill="#56f4cb" stroke="#000" stroke-linecap="round" stroke-linejoin="round" stroke-width=".751" d="m152.40156,435.01158s-17.73879,9.55467-13.24651,26.85222c3.40549,13.11287,28.70417,27.05926,40.50106,30.75093,2.33794.73162,4.56066-3.73348,6.54583-5.16795.76969-.55617,1.71388-.7679,2.7232.07125,2.52328,2.09785,9.92644,11.63298,15.11518,14.53064,5.92669,3.30977,35.96027,10.31161,56.98377,15.31292,19.83311.30828,41.58016.35795,56.18947.09131,3.95248-.07214,7.24489-3.03537,7.73604-6.95452l.8047-6.42111c.69344-5.53335-3.74651-10.36391-9.32302-10.13198-15.03244.62519-42.39903.97543-58.41054-3.59077-33.07364-9.43203-67.075-22.00596-80.08955-28.00734-13.80123-6.36414-31.16354-19.00694-25.52962-27.33558Z"/><path fill="#6CF" stroke="#000" stroke-linecap="round" stroke-linejoin="round" stroke-width=".751" d="m408.31394,128.53205c-13.69842-39.42171-25.02798-53.0139-63.88344-57.25146l-212.97544-17.76821-105.11753.15043c-51.05709,75.01967-12.01343,139.69617,68.34791,139.69617l159.62404-2.99016-14.18358,23.18552s61.33633,43.56836,99.11082,14.00367c60.06716-47.01233,98.1097-16.0042,98.1097-16.0042l-29.03246-83.02177Z"/></g><g transform="translate(690.625 383.625)"><ellipse cx="356.05" cy="265.509" stroke="#000" stroke-linecap="round" stroke-linejoin="round" stroke-width=".75" rx="14.508" ry="7.286" transform="rotate(-68.102 356.05 265.51)"/><path fill="#ff5760" stroke="#000" stroke-linecap="round" stroke-linejoin="round" stroke-width=".75" d="m313.54548,155.41507c-18.51968-9.06446-40.87597-1.38952-49.9344,17.14257v.00006c-9.05843,18.53203-3.96965,39.05602,16.02998,52.06453l84.99846,57.03733s-7.04829-18.52677,10.9998-30.01965c32.9994-21.01375,34.46861-53.22514,34.46861-53.22514l-96.56246-42.9997Z"/><path fill="#fff" stroke="#000" stroke-linecap="round" stroke-linejoin="round" stroke-width=".75" d="m270.64122,142.31943s36.16215,6.74441,42.37187,17.26024c25.99953,44.02881-8.99984,137.08972-8.99984,137.08972h-104.9981s-35.372-124.32941-23.37222-137.33793c11.99978-13.00851,54.999-18.01179,54.999-18.01179"/><path fill="#ff5760" stroke="#000" stroke-linecap="round" stroke-linejoin="round" stroke-width=".75" d="m322.52627,198.17352c-.87645-14.54803-3.5661-27.52192-8.58383-36.93262-.30297-.55914-.6079-1.11682-.92943-1.66124-4.33977-7.34948-23.29914-12.85289-34.3297-15.50307,3.44183,6.55684-79.66823,152.59278-79.66823,152.59278h104.9981s20.09485-53.4466,18.51309-98.49586Z"/><path fill="#ff5760" stroke="#000" stroke-linecap="round" stroke-linejoin="round" stroke-width=".75" d="m221.89553,142.60548c-4.81559.8054-11.11796,2.00833-17.60344,3.66219-10.72124,2.9211-23.4007,7.37427-28.64914,13.06379-.14892.16148-.28515.3532-.41967.54858-1.2219,1.88411-1.8696,5.69147-2.06246,10.90289-.26147,34.09189,25.85427,125.88646,25.85427,125.88646h105.62553s6.99987-20.0131,11.99978-43.02816c-23.54472-44.99758-93.19534-109.22691-94.74486-111.03574Z"/><path stroke="#000" stroke-linecap="round" stroke-linejoin="round" stroke-width=".75" d="m82.37495,265.86774s1.33264,16.4083,22.96569,21.42001c21.63305,5.01172,16.2531-32.96924,16.2531-32.96924,0,0-30.41507-1.9154-39.21879,11.54923Z"/><path fill="#fff" stroke="#000" stroke-linecap="round" stroke-linejoin="round" stroke-width=".75" d="m492.60789,153.03612l.00005.00006c13.40327,14.95303,2.61416,35.38306-11.38559,50.39288-.99998,19.01244-80.58202,88.36042-80.58202,88.36042-15.3471,13.77502-38.94774,12.49222-52.7135-2.86521l-.00005-.00006c-13.76576-15.35743-12.48382-38.97395,2.86328-52.74898l88.14364-85.07536c15.20893-14.68666,39.56157-13.80816,53.67419,1.93625Z"/><polygon fill="#8ec8ef" stroke="#000" stroke-linecap="round" stroke-linejoin="round" stroke-width=".75" points="500.861 117.382 506.625 166.016 402.302 279.876 396.54 231.24 500.861 117.382"/><polygon fill="#cdebfc" stroke="#000" stroke-linecap="round" stroke-linejoin="round" stroke-width=".75" points="506.547 166.967 456.158 155.624 351.832 269.487 402.224 280.827 506.547 166.967"/><path fill="#6CF" stroke="#000" stroke-linecap="round" stroke-linejoin="round" stroke-width=".75" d="m414.22357,207.43167s6.99987,9.00589,12.99976,9.00589,10.08131,3.00196,8.54059,7.50491-9.54057,9.50622-5.54065,11.50753,7.99985,1.00065,3.99993,4.00262-25.61939,3.50864-25.30947,9.75956-1.3165,7.60689-.0033,10.4312c1.3132,2.8243-2.68673,9.82889-4.68669,11.8302s2.97011,3.65915,2.97011,3.65915l70.08875-76.22553s-1.37509-12.41729-7.21752-8.951c-5.84243,3.46629-2.84248,7.46891-12.8423,9.47022s-7.41474.072-9.70726-6.46826-14.2923-7.54091-14.2923-7.54091l-18.99966,22.01441Z"/><polygon fill="#8ec8ef" stroke="#000" stroke-linecap="round" stroke-linejoin="round" stroke-width=".75" points="435.958 201.472 456.106 155.6 351.78 269.464 331.629 315.338 435.958 201.472"/><path fill="#6CF" stroke="#000" stroke-linecap="round" stroke-linejoin="round" stroke-width=".75" d="m430.22328,191.42119c1.99996,1.00065,7.66377,5.00327,1.33193,5.00327s-3.33189-6.00393-1.33193-5.00327Z"/><path fill="#ff5760" stroke="#000" stroke-linecap="round" stroke-linejoin="round" stroke-width=".75" d="m405.82703,134.42188c-10.21038,4.15064-15.2752,15.42826-10.70734,26.68012,5.98479,14.74212,19.69103,20.108,32.66228,31.91695,1.22014,1.11081,3.04713.36811,3.14745-1.27948,1.06655-17.51548,7.15015-30.92616,1.16536-45.66829-4.56786-11.25185-16.05737-15.79994-26.26775-11.6493Z"/><ellipse cx="413.607" cy="153.587" fill="#fff" stroke="#000" stroke-linecap="round" stroke-linejoin="round" stroke-width=".75" rx="8.891" ry="9.186" transform="rotate(-21.697 413.607 153.587)"/><path fill="#fff" stroke="#000" stroke-linecap="round" stroke-linejoin="round" stroke-width=".75" d="m114.83676,324.28913l-.00006-.00004c-16.74698-11.07446-21.73382-33.42439-11.28463-50.57519l65.19068-106.94349c11.36632-17.21147,34.52382-21.9437,51.72371-10.56973l.00006.00004c17.1999,11.37397,21.92894,34.54705,10.56262,51.75852l-63.77402,104.61825c-11.00221,18.0585-34.78506,23.37221-52.41837,11.71164Z"/><polygon fill="#cdebfc" stroke="#000" stroke-linecap="round" stroke-linejoin="round" stroke-width=".75" points="375.56 164.17 435.764 201.42 331.435 315.286 271.228 278.039 375.56 164.17"/><path fill="#fff" d="m99.36668,297.43358c-2.41847-20.16747,11.57254-38.62385,31.63254-41.72839l150.68393-21.24686c20.48693-2.30778,38.96438,12.44051,41.27049,32.94111v.00012c2.30635,20.5006-12.43215,38.99048-32.91908,41.29821l-147.35251,21.45811c-21.10105,3.36567-40.76954-11.49272-43.31536-32.72222v-.00008Z"/><path fill="none" stroke="#000" stroke-linecap="round" stroke-linejoin="round" stroke-width=".75" d="m191.07468,247.09338l89.6085-12.63505c20.48693-2.30778,38.96438,12.44051,41.27049,32.94111v.00012c2.30635,20.5006-12.43215,38.99048-32.91908,41.29821l-147.35251,21.45811c-21.10105,3.36567-40.76954-11.49272-43.31536-32.72222v-.00008"/><path fill="#fff" stroke="#000" stroke-linecap="round" stroke-linejoin="round" stroke-width=".75" d="m308.72548,264.96933s9.31834,4.20418,15.99971,1.00065,15.49972-10.50688,19.49965-6.50426c1.99996,2.00131-10.49981,18.51211-18.99966,29.01899-15.10704,18.67419-35.99935,20.0131-35.99935,20.0131"/><path fill="#fff" stroke="#000" stroke-linecap="round" stroke-linejoin="round" stroke-width=".75" d="m306.22553,257.46441s10.63494.92338,27.99949-9.00589c6.99987-4.00262,14.49387-7.64933,16.99969-5.00327s-9.71372,13.65144-18.99966,22.01441c-9.99982,9.00589-24.99955,14.00917-24.99955,14.00917"/><path fill="#6CF" stroke="#000" stroke-linecap="round" stroke-linejoin="round" stroke-width=".75" d="M326.03192 218.22565s1.93587 8.21846 9.5644 5.71682c7.62853-2.50164 6.62855-17.51146 13.62843-7.50491s23.35037 13.02121 25.67493 10.51323-4.45505-10.70786-2.06523-15.11349 4.38979-2.40432 11.38966-1.40367 11.99978 2.00131 14.99973-7.00458-2.46933-15.07802 3.25158-15.74943c3.88735-.45623 4.88733-3.45819 4.88733-3.45819l-31.80313-20.05113-49.5277 54.05535zM388.2615 253.26484s1.11252-7.5661-9.46228-7.18686c-10.57481.37923-9.57482 5.38251-17.57468 5.38251s-17.47796 19.16038-11.23894 22.08837c6.23903 2.928 14.23888 5.92996 14.23888 5.92996l24.03702-26.21398zM344.43824 277.80991c3.56046 1.33178 5.06597-.53852 5.42623 2.06618.36026 2.6047-.84975 3.43706-2.7447 3.5212-1.89495.08415-6.48995.13964-7.19239-2.89007-.70244-3.02971 2.7243-3.36557 4.51087-2.69731z"/><path fill="none" stroke="#000" stroke-linecap="round" stroke-linejoin="round" stroke-width=".75" d="m318.0376,226.95068s.89209.70435,2.46973,1.70044"/><path fill="none" stroke="#000" stroke-dasharray="0 0 6.038 4.026" stroke-linecap="round" stroke-linejoin="round" stroke-width=".75" d="m323.99805,230.64697c2.99194,1.54468,6.9209,3.16748,11.34302,3.98242,9.88379,1.82129,23.69507.32666,32.78906,3.0752,9.09399,2.74878,19.38184-2.08325,25.73779-6.17163,4.66724-3.00195,9.94678-6.16431,14.70117-6.56641"/><path fill="none" stroke="#000" stroke-linecap="round" stroke-linejoin="round" stroke-width=".75" d="m410.58374,224.9729c.99878.09863,1.9646.34814,2.88574.77954"/><path fill="#fff" stroke="#000" stroke-linecap="round" stroke-linejoin="round" stroke-width=".75" d="m296.22571,241.45394l23.99956-1.00065s9.31834,1.20221,15.99971-2.00131,14.988-7.29342,17.49382-4.64736c2.50582,2.64605-9.39029,10.30294-19.49378,17.65588-10.9998,8.00524-26.99951,14.00917-26.99951,14.00917"/><path fill="#fff" stroke="#000" stroke-linecap="round" stroke-linejoin="round" stroke-width=".75" d="m273.18533,235.65156l42.04003-5.20483-1.99996,4.00262s9.31834,1.20221,15.99971-2.00131,14.988-7.29342,17.49382-4.64736c2.50582,2.64605-7.09576,11.88632-18.79467,16.27208-11.69891,4.38576-21.69873,4.38576-21.69873,4.38576"/><line x1="315.569" x2="306.226" y1="234.629" y2="234.629" fill="#fff" stroke="#000" stroke-linecap="round" stroke-linejoin="round" stroke-width=".75"/><path fill="none" stroke="#000" stroke-dasharray="0 0 6.002 4.001" stroke-linecap="round" stroke-linejoin="round" stroke-width=".75" d="m416.94078,222.22743s4.71718,9.58002,0,12.40196c-4.71718,2.82193-25.42898,10.83142-23.07293,22.33683,2.35605,11.50541-3.58525,17.59726,11.38518,20.55526"/><path fill="#fff" stroke="#000" stroke-linecap="round" stroke-linejoin="round" stroke-width=".75" d="m492.47464,182.86639s4.13426,9.30784-2.86561,17.31308-15.79222,2.9623-13.896.98082,16.76161-18.2939,16.76161-18.2939Z"/><path fill="#fff" stroke="#000" stroke-linecap="round" stroke-linejoin="round" stroke-width=".75" d="m495.47458,179.86442s4.13426,9.30784-2.86561,17.31308-15.79222,2.9623-13.896.98082,16.76161-18.2939,16.76161-18.2939Z"/><path fill="#fff" stroke="#000" stroke-linecap="round" stroke-linejoin="round" stroke-width=".75" d="M501.47447 172.85984s4.13426 9.30784-2.86561 17.31308-15.79222 2.9623-13.896.98082 16.76161-18.2939 16.76161-18.2939zM442.5508 148.21486s9.90052-11.4971 18.90036-11.4971c5.09893 0 21.61444 2.00131 26.99951 2.00131 1.99996 0-.70255 10.23182-16.70226 7.22986"/><path fill="#ff5760" stroke="#000" stroke-linecap="round" stroke-linejoin="round" stroke-width=".75" d="m207.35746,150.16994l-.00002-.00006c-20.56981-4.06182-34.08315,7.78225-48.51065,29.02513l-76.28946,86.09646s17.64588,8.74939,21.9996,16.01048c11.99978,20.0131,40.05658,7.02508,47.99913-6.00393,18.34764-30.09758,60.99889-31.0203,60.99889-31.0203l23.69803-49.48318c4.05889-20.58364-9.32549-40.56287-29.89553-44.6246Z"/></g></svg>